# xmcd CD database file
#
# Track frame offsets:
#	150
#	11334
#	25695
#	38631
#	52647
#	63126
#	78531
#	90867
#	101721
#	113886
#	130002
#	151407
#
# Disc length: 2229 seconds
#
# Revision: 0
# Processed by: cddbd v1.5.2PL0 Copyright (c) Steve Scherf et al.
# Submitted via: CDex 1.70beta2
#
DISCID=7a08b30c
DTITLE=Don Worden - Winter Fires
DYEAR=1900
DGENRE=Blues
TTITLE0=Hell's Waiting
TTITLE1=Full Bloom of Youth
TTITLE2=Candle's End
TTITLE3=Once Over Lightly
TTITLE4=Break Up Blues
TTITLE5=Better Every Time
TTITLE6=Cinderella's Shoes
TTITLE7=Cold November Wind
TTITLE8=A Sometimes Wish
TTITLE9=Winter Fires
TTITLE10=Please Wait for Me
TTITLE11=I Only Want it All Back
EXTD=
EXTT0=
EXTT1=
EXTT2=
EXTT3=
EXTT4=
EXTT5=
EXTT6=
EXTT7=
EXTT8=
EXTT9=
EXTT10=
EXTT11=
PLAYORDER=
